<svg xmlns="http://www.w3.org/2000/svg" viewBox="0 0 1600 900" preserveAspectRatio="xMidYMid slice">
  <defs>
    <linearGradient id="sky" x1="0" y1="0" x2="0" y2="1">
      <stop offset="0%" stop-color="#0b3d2e"/>
      <stop offset="60%" stop-color="#10503c"/>
      <stop offset="100%" stop-color="#1f6b4f"/>
    </linearGradient>
  </defs>
  <rect width="1600" height="900" fill="url(#sky)"/>
  <path d="M0 620 L300 480 L600 560 L900 420 L1200 540 L1600 460 L1600 900 L0 900 Z" fill="#0d4634" opacity="0.9"/>
  <path d="M0 720 L400 620 L800 700 L1200 600 L1600 680 L1600 900 L0 900 Z" fill="#093024" opacity="0.95"/>
  <g fill="#14543f" opacity="0.85">
    <rect x="340" y="560" width="40" height="40"/><rect x="400" y="580" width="36" height="36"/>
    <rect x="470" y="600" width="42" height="42"/><rect x="900" y="500" width="38" height="38"/>
    <rect x="960" y="520" width="40" height="40"/><rect x="1030" y="540" width="36" height="36"/>
    <rect x="650" y="640" width="40" height="40"/><rect x="720" y="660" width="38" height="38"/>
  </g>
</svg>
